{"asset":{"generator":"3D Builder","version":"2.0"},"scene":0,"scenes":[{"nodes":[0]}],"nodes":[{"mesh":0,"matrix":[39.370079040527344,0,0,0,0,-4.6932786972320173E-6,-39.370075225830078,0,0,39.370075225830078,-4.6932786972320173E-6,0,0,2.8042654991149902,-3.342945262829744E-7,1]}],"meshes":[{"primitives":[{"attributes":{"POSITION":0,"TEXCOORD_0":1},"mode":4,"indices":2,"material":0}]}],"materials":[{"pbrMetallicRoughness":{"baseColorFactor":[1,1,1,1],"metallicFactor":1,"roughnessFactor":1,"baseColorTexture":{"index":0,"texCoord":0}},"alphaMode":"OPAQUE"}],"textures":[{"source":0,"sampler":0}],"images":[{"uri":"texture_0_17562231701288840391.png"}],"samplers":[{"magFilter":9729,"wrapS":10497,"wrapT":10497}],"accessors":[{"bufferView":0,"byteOffset":0,"count":15436,"componentType":5126,"type":"VEC3","min":[-0.0048900381661951542,-0.00987008772790432,-0.0017735504079610109],"max":[0.0051426622085273266,0.007645732257515192,0.0064378571696579456]},{"bufferView":1,"byteOffset":0,"count":15436,"componentType":5126,"type":"VEC2"},{"bufferView":2,"byteOffset":0,"count":84192,"componentType":5125,"type":"SCALAR"}],"bufferViews":[{"buffer":0,"byteOffset":0,"byteLength":185232,"byteStride":12,"target":34962},{"buffer":0,"byteOffset":185232,"byteLength":123488,"byteStride":8,"target":34962},{"buffer":0,"byteOffset":308720,"byteLength":336768,"target":34963}],"buffers":[{"byteLength":645488,"uri":"tortue.bin"}]}